<?xml version="1.0" encoding="UTF-8"?>
<svg width="16px" height="19px" version="1.1" xmlns="http://www.w3.org/2000/svg">
    <g stroke="none" stroke-width="1" fill="none" fill-rule="evenodd">
        <path d="M2.03048554,18.9263458 C1.82567984,18.8403655 1.59663434,18.6252929 1.47574171,18.4054439 C1.39003739,18.2495866 1.37766671,18.1444422 1.36251565,17.4430838 C1.35108904,16.9141431 1.32849988,16.6451495 1.29369506,16.6235602 C1.26519906,16.6058843 0.96245986,16.5911208 0.620942194,16.5907525 L0,16.5900828 L0.0134008196,12.4891165 L0.0268011886,8.3881502 L0.418466256,5.54481356 C0.63388202,3.98097797 0.841097229,2.60159554 0.878944247,2.4795185 C0.980360666,2.15239778 1.26823044,1.75035103 1.56573152,1.52033306 C1.87033272,1.28482517 2.66143396,0.901775978 3.17959072,0.738906287 C3.6578127,0.58858914 4.52545471,0.388567319 5.27501827,0.255836734 C7.30813729,-0.104182133 8.96865106,-0.0857376703 11.1161579,0.320718177 C13.5718317,0.785500438 14.7975286,1.42892097 15.1421263,2.43412056 C15.2043357,2.61558738 15.3619375,3.65378079 15.61759,5.56621601 L16,8.42686988 L16,12.5084761 L16,16.5900828 L15.4029159,16.5907525 C15.0745197,16.5911208 14.7825492,16.6058843 14.7540928,16.6235602 C14.7196039,16.6449833 14.6961892,16.9109232 14.6838627,17.421212 C14.6624344,18.3083269 14.618443,18.460948 14.3076186,18.7265366 C13.7096793,19.2374545 12.6616823,18.996994 12.4464003,18.2994845 C12.4171211,18.2046195 12.3949641,17.830163 12.3949641,17.4301974 C12.3949641,16.8497634 12.3826484,16.7156078 12.3241509,16.6588229 C12.2607811,16.5973084 11.8087556,16.5900828 8.02385813,16.5900828 C4.23896025,16.5900828 3.78693472,16.5973084 3.72356495,16.6588229 C3.66488893,16.715781 3.65267642,16.8526103 3.65231141,17.4571443 C3.6519045,18.132145 3.6439225,18.203088 3.54561812,18.4054439 C3.41900025,18.6660821 3.29439985,18.7848841 3.0218704,18.90482 C2.77354291,19.0141047 2.26579028,19.0251294 2.03048554,18.9263458 Z M2.89074668,14.0367175 C3.31729273,13.8887109 3.61412642,13.4777267 3.61412642,13.0351548 C3.61412642,12.4196652 3.14067165,11.9532569 2.51588289,11.9532569 C2.20535501,11.9532569 2.01766468,12.021273 1.78797297,12.2170407 C1.52565344,12.4406175 1.42481247,12.6649616 1.42481247,13.0249761 C1.42481247,13.3650387 1.51797381,13.5904042 1.74471524,13.798847 C2.03533115,14.06601 2.5177539,14.1661418 2.89074668,14.0367175 Z M14.0201062,13.9764003 C14.8346028,13.5754207 14.8346028,12.4745315 14.0201062,12.0735519 C13.4429927,11.789437 12.7438014,12.0351537 12.4953076,12.6094115 C12.3942656,12.8429142 12.4097299,13.2646781 12.528031,13.5019008 C12.7935752,14.034382 13.4671928,14.2486012 14.0201062,13.9764003 Z M14.1101262,9.1968975 C14.2423382,9.1725581 14.3960384,9.11112628 14.4516822,9.06038234 C14.563404,8.95849772 14.6497014,8.63582407 14.6197674,8.43189384 C14.6091731,8.35971683 14.4605028,7.32318196 14.2893893,6.12848321 C13.9690089,3.89162065 13.9343104,3.73667936 13.7095679,3.53938242 C13.4776461,3.33578329 13.5878705,3.33971514 8.05507864,3.33767953 C4.31154675,3.33630222 2.77916361,3.34976573 2.63374142,3.38531142 C2.36836076,3.45017864 2.1829434,3.63531923 2.09987256,3.91838389 C1.98832013,4.29849819 1.3927646,8.57073659 1.42678713,8.74678375 C1.47196859,8.98057032 1.66112077,9.16159507 1.89929648,9.19899019 C2.222346,9.24971138 13.8340507,9.24772148 14.1101262,9.1968975 Z M11.4261107,2.37451469 C11.6340929,2.32773646 11.7493536,2.20976393 11.789369,2.00270989 C11.8250913,1.81786803 11.710654,1.57254394 11.5570078,1.50458758 C11.4758647,1.4686989 10.4786293,1.45505473 7.9879407,1.45575563 C4.78103688,1.45665806 4.52453993,1.46218512 4.43536216,1.532307 C4.22319138,1.69914026 4.18122876,1.95349457 4.32746704,2.18631498 C4.38020916,2.2702844 4.46671155,2.33817602 4.54134751,2.35417993 C4.61027399,2.36895955 4.6869468,2.38761845 4.71173142,2.39564409 C4.8220676,2.43137259 11.2634371,2.41110235 11.4261107,2.37451469 Z" id="bus" fill="#F5A623" fill-rule="nonzero"></path>
    </g>
</svg>
