<?xml version="1.0" encoding="UTF-8"?>
<svg width="15px" height="14px" viewBox="0 0 15 14" version="1.1" xmlns="http://www.w3.org/2000/svg" xmlns:xlink="http://www.w3.org/1999/xlink">
    <g stroke="none" stroke-width="1" fill="none" fill-rule="evenodd">
        <path d="M13.2666667,0.88375 C13.0958333,0.3675 12.6291667,0 12.0833333,0 L2.91666667,0 C2.37083333,0 1.90416667,0.3675 1.73333333,0.88375 L0,6.125 L0,13.125 C0,13.60625 0.375,14 0.833333333,14 L1.66666667,14 C2.12916667,14 2.5,13.60625 2.5,13.125 L2.5,12.25 L12.5,12.25 L12.5,13.125 C12.5,13.60625 12.875,14 13.3333333,14 L14.1666667,14 C14.6291667,14 15,13.60625 15,13.125 L15,6.125 L13.2666667,0.88375 Z M2.87037037,9.61333333 C2.20432099,9.61333333 1.66666667,9.07137778 1.66666667,8.4 C1.66666667,7.72862222 2.20432099,7.18666667 2.87037037,7.18666667 C3.53641975,7.18666667 4.07407407,7.72862222 4.07407407,8.4 C4.07407407,9.07137778 3.53641975,9.61333333 2.87037037,9.61333333 Z M12.1296296,9.61333333 C11.4635802,9.61333333 10.9259259,9.07137778 10.9259259,8.4 C10.9259259,7.72862222 11.4635802,7.18666667 12.1296296,7.18666667 C12.795679,7.18666667 13.3333333,7.72862222 13.3333333,8.4 C13.3333333,9.07137778 12.795679,9.61333333 12.1296296,9.61333333 Z M1.66666667,5.13333333 L2.93650794,1.21333333 L12.2486772,1.21333333 L13.5185185,5.13333333 L1.66666667,5.13333333 Z" id="car" fill="#50E3C2" fill-rule="nonzero"></path>
    </g>
</svg>
