<?xml version="1.0" encoding="UTF-8"?>
<svg width="13px" height="19px" version="1.1" xmlns="http://www.w3.org/2000/svg">
    <g stroke="none" stroke-width="1" fill="none" fill-rule="evenodd">
        <path d="M8.35714286,16.6902369 L4.64285714,16.6902369 L2.78571429,18.5447077 L0,18.5447077 L1.85714286,16.6902369 C0.831471179,16.6902369 0,15.859962 0,14.8357661 L0,1.85447077 C0,0.834511844 0.835714286,0 1.85714286,0 L11.1428571,0 C12.1685288,6.27139129e-17 13,0.830274843 13,1.85447077 L13,14.8357661 C13,15.859962 12.1685288,16.6902369 11.1428571,16.6902369 L13,18.5447077 L10.2142857,18.5447077 L8.35714286,16.6902369 Z M1.85714286,4.63617691 L1.85714286,10.1995892 L11.1428571,10.1995892 L11.1428571,4.63617691 L1.85714286,4.63617691 Z M3.25,14.8357661 C4.01925376,14.8357661 4.64285714,14.21306 4.64285714,13.444913 C4.64285714,12.6767661 4.01925376,12.05406 3.25,12.05406 C2.48074624,12.05406 1.85714286,12.6767661 1.85714286,13.444913 C1.85714286,14.21306 2.48074624,14.8357661 3.25,14.8357661 Z M9.75,14.8357661 C10.5192538,14.8357661 11.1428571,14.21306 11.1428571,13.444913 C11.1428571,12.6767661 10.5192538,12.05406 9.75,12.05406 C8.98074624,12.05406 8.35714286,12.6767661 8.35714286,13.444913 C8.35714286,14.21306 8.98074624,14.8357661 9.75,14.8357661 Z M4.64285714,1.85447077 L4.64285714,2.78170615 L8.35714286,2.78170615 L8.35714286,1.85447077 L4.64285714,1.85447077 Z" id="train" fill="#7ED321" fill-rule="nonzero"></path>
    </g>
</svg>
